<svg data-v-423bf9ae="" xmlns="http://www.w3.org/2000/svg" viewBox="0 0 60.06116347678338 60" class="font"><!----><!----><!----><g data-v-423bf9ae="" id="3bddd8c4-3e01-4db5-ad39-491fc404766d" fill="#3CEBA0" transform="matrix(6.116207689453325,0,0,6.116207689453325,-4.525994251030234,-21.345565132939385)"><path d="M0.74 8.39C0.74 11.12 2.93 13.30 5.66 13.30C6.08 13.30 6.48 13.24 6.86 13.15C7.04 13.12 7.17 12.92 7.10 12.74C7.08 12.54 6.89 12.46 6.71 12.50C6.36 12.60 6.02 12.61 5.66 12.61C3.33 12.61 1.43 10.71 1.43 8.39C1.43 6.08 3.33 4.17 5.66 4.17C7.97 4.17 9.87 6.08 9.87 8.39C9.87 9.09 9.72 9.74 9.41 10.30C9.35 10.44 9.02 10.93 8.60 11.03L8.48 11.03C8.34 11.03 8.27 10.99 8.23 10.93C8.19 10.85 8.13 10.71 8.15 10.63L8.13 10.63L8.13 8.57L8.13 8.50L8.13 8.39C8.13 6.96 7.04 5.77 5.66 5.77C4.27 5.77 3.15 6.96 3.15 8.39C3.15 9.83 4.27 11.03 5.66 11.03C6.38 11.03 7 10.71 7.46 10.19L7.46 10.67C7.46 10.91 7.55 11.13 7.69 11.34C7.84 11.55 8.11 11.72 8.48 11.72C8.57 11.72 8.67 11.72 8.76 11.69C9.59 11.45 10.00 10.67 10.04 10.63C10.37 9.97 10.56 9.21 10.56 8.39C10.56 5.67 8.37 3.49 5.66 3.49C2.93 3.49 0.74 5.67 0.74 8.39ZM3.88 8.39C3.88 7.32 4.68 6.45 5.66 6.45C6.62 6.45 7.45 7.32 7.45 8.39C7.45 9.46 6.62 10.30 5.66 10.30C4.68 10.30 3.88 9.46 3.88 8.39Z"></path></g><!----><!----></svg>